<?xml version="1.0" standalone="yes"?>

<svg version="1.1" viewBox="0.0 0.0 264.82152230971127 226.38582677165354" fill="none" stroke="none" stroke-linecap="square" stroke-miterlimit="10" xmlns="http://www.w3.org/2000/svg" xmlns:xlink="http://www.w3.org/1999/xlink"><clipPath id="p.0"><path d="m0 0l264.82153 0l0 226.38583l-264.82153 0l0 -226.38583z" clip-rule="nonzero"></path></clipPath><g clip-path="url(#p.0)"><path fill="#000000" fill-opacity="0.0" d="m0 0l264.82153 0l0 226.38583l-264.82153 0z" fill-rule="evenodd"></path><path fill="#30a2cc" d="m183.76155 143.84924l-88.55852 78.31702l-89.89923 0l88.55852 -78.31702z" fill-rule="evenodd"></path><path stroke="#30a2cc" stroke-width="1.0" stroke-linejoin="round" stroke-linecap="butt" d="m183.76155 143.84924l-88.55852 78.31702l-89.89923 0l88.55852 -78.31702z" fill-rule="evenodd"></path><path fill="#30a2cc" d="m259.4902 222.16595l-163.7471 0l0 -78.31702l163.7471 0z" fill-rule="evenodd"></path><path stroke="#30a2cc" stroke-width="1.0" stroke-linejoin="round" stroke-linecap="butt" d="m259.4902 222.16595l-163.7471 0l0 -78.31702l163.7471 0z" fill-rule="evenodd"></path><path fill="#30a2cc" d="m73.453545 82.53545l88.558525 -78.31701l97.49043 0l-88.55852 78.31701z" fill-rule="evenodd"></path><path stroke="#30a2cc" stroke-width="1.0" stroke-linejoin="round" stroke-linecap="butt" d="m73.453545 82.53545l88.558525 -78.31701l97.49043 0l-88.55852 78.31701z" fill-rule="evenodd"></path><path fill="#30a2cc" d="m5.311796 4.2184424l163.7471 0l0 78.31701l-163.7471 0z" fill-rule="evenodd"></path><path stroke="#30a2cc" stroke-width="1.0" stroke-linejoin="round" stroke-linecap="butt" d="m5.311796 4.2184424l163.7471 0l0 78.31701l-163.7471 0z" fill-rule="evenodd"></path><path fill="#3385a4" d="m5.311101 82.535576l89.44806 61.313667l164.75024 0l-89.44806 -61.313667z" fill-rule="evenodd"></path><path stroke="#3385a4" stroke-width="1.0" stroke-linejoin="round" stroke-linecap="butt" d="m5.311101 82.535576l89.44806 61.313667l164.75024 0l-89.44806 -61.313667z" fill-rule="evenodd"></path><path fill="#3385a4" d="m259.5094 145.09677l-254.1983 0l0 -63.808723l254.1983 0z" fill-rule="evenodd"></path><path stroke="#3385a4" stroke-width="1.0" stroke-linejoin="round" stroke-linecap="butt" d="m259.5094 145.09677l-254.1983 0l0 -63.808723l254.1983 0z" fill-rule="evenodd"></path></g></svg>